<svg id="Layer_1" data-name="Layer 1" xmlns="http://www.w3.org/2000/svg" viewBox="0 0 1744.5 286"><defs><style>.cls-1,.cls-2{fill:#fff;stroke:#fff;stroke-miterlimit:10;}.cls-1{stroke-width:15px;}.cls-2{stroke-width:10px;}</style></defs><path class="cls-1" d="M549.9,342.3V90h52.8V296.3h125v46Z" transform="translate(-90.1 -79.4)"/><path class="cls-1" d="M795.8,261.8c1.5,28.1,17.4,46.3,41.8,46.3,15.9,0,30-8,33.4-20.9h50.9c-11.4,38.4-42.2,60.1-82.1,60.1-62.3,0-93.4-34.2-93.4-101.9,0-57.8,33-95,90.4-95s87.8,37.2,87.8,111.4Zm77.9-31.2c-.8-27.8-19-41.1-38.4-41.1s-36.1,15.2-38,41.1Z" transform="translate(-90.1 -79.4)"/><path class="cls-1" d="M1047.7,342.3,1015,286.1l-31.9,56.2H923.8l62.7-95.4-60.8-91.6h59.7l31.5,54.4,31.9-54.4h57.4l-61.9,91.6,63.8,95.4Z" transform="translate(-90.1 -79.4)"/><path class="cls-1" d="M1141.2,132.9v-46h49.4v46Zm0,209.4v-187h49.4v187Z" transform="translate(-90.1 -79.4)"/><path class="cls-1" d="M1400.3,274.7c-5.3,43.3-40.6,72.6-85.9,72.6-50.9,0-85.8-33.9-85.8-100.8s34.9-96.1,87.4-96.1c48.6,0,81.7,27.7,84.7,71.8h-49.8c-2.6-19.4-16.7-30.8-35.3-30.8-20.9,0-38,13.3-38,54s17.1,60.4,36.5,60.4,34.5-11,36.4-31.1Z" transform="translate(-90.1 -79.4)"/><path class="cls-1" d="M1429.6,248.8c0-59.3,36.8-98.4,96.1-98.4s95,38.8,95,98.4-36.8,98.5-95,98.5C1465.3,347.3,1429.6,307,1429.6,248.8Zm141.3,0c0-38-15.2-56.6-45.2-56.6s-45.2,18.6-45.2,56.6,15.2,57,45.2,57S1570.9,286.8,1570.9,248.8Z" transform="translate(-90.1 -79.4)"/><path class="cls-1" d="M1777.3,342.3V229.1c0-28.9-8.4-36.9-31.9-36.9-25.9,0-38.4,14.4-38.4,43V342.3h-49.4v-187h47.1v27.4c11.4-20.9,30.4-32.3,60.4-32.3,35.7,0,62,21.7,62,62.3V342.3Z" transform="translate(-90.1 -79.4)"/><path class="cls-2" d="M444.5,117.3v211L429.3,330V87c-59.2,1.8-114,11.5-151.9,35.1-38-23.6-92.7-33.3-151.9-35.1V330l-15.2-1.7v-211H95.1V345.2H232.7c22.5,0,24.9,15.2,44.7,15.2s22.2-15.2,44.7-15.2H459.7V117.3ZM262.2,324.6c-29.6-11.7-62.8-19.2-106.3-22.5V119c35.7,3,75.9,10.3,106.3,29.2Zm136.7-22.5c-43.5,3.3-76.7,10.8-106.3,22.5V148.2C323,129.3,363.2,122,398.9,119Z" transform="translate(-90.1 -79.4)"/></svg>